<svg xmlns="http://www.w3.org/2000/svg" xmlns:xlink="http://www.w3.org/1999/xlink" viewBox="0,0,256,256" width="27px" height="27px" fill-rule="nonzero"><g fill="#ffffff" fill-rule="nonzero" stroke="none" stroke-width="1" stroke-linecap="butt" stroke-linejoin="miter" stroke-miterlimit="10" stroke-dasharray="" stroke-dashoffset="0" font-family="none" font-weight="none" font-size="none" text-anchor="none" style="mix-blend-mode: normal"><g transform="scale(5.33333,5.33333)"><path d="M43.426,10.333c-1.612,0 -1.544,-0.333 -4.641,-0.333v1.189h0.398c0.808,0.079 3.399,0.591 2.473,2.862l-8.746,20.255l-5.669,-11.405l4.801,-8.572c0.454,-0.694 2.204,-3.064 4.958,-3.14v-1.189c-2.956,0 -3.343,0.333 -4.963,0.333c-1.749,0 -1.676,-0.333 -5.037,-0.333v1.189c0.723,0.065 4.09,0.605 2.862,2.93c-0.093,0.176 -0.152,0.32 -0.196,0.45l-3.404,6.362l-3.405,-6.851c-0.29,-0.773 -0.528,-2.926 2.219,-2.885c-0.016,-0.002 -0.031,-0.003 -0.047,-0.005h0.366v-1.19c-3.582,0 -3.71,0.333 -5.673,0.333c-2.12,0 -1.137,-0.333 -5.21,-0.333v1.189h0.209c0.535,0.027 2.453,0.335 4,3.183l5.182,10.969l-4.909,9.174l-9.175,-20.371c-0.165,-0.609 -0.45,-2.99 2.473,-2.949c-0.017,-0.002 -0.034,-0.003 -0.051,-0.005h0.759v-1.19c-3.843,0 -4.346,0.333 -6.452,0.333c-2.274,0 -2.178,-0.333 -6.548,-0.333v1.189h0.87l-0.45,0.021c0,0 3.375,-0.206 5.122,3.67c0.042,0.094 0.087,0.161 0.131,0.245l10.928,24.875l1.053,0.016l7.15,-12.764l6.022,12.748l0.098,-0.006l-0.001,0.006l0.982,0.016l11.813,-25.837c0.438,-0.836 1.765,-2.918 4.168,-2.989h0.114v-1.19c-2.724,0 -3.081,0.333 -4.574,0.333z"></path></g></g></svg>